<?xml version="1.0" encoding="UTF-8"?>
<svg xmlns="http://www.w3.org/2000/svg" width="22" height="22" viewBox="0 0 22 22">
 <defs><style type="text/css" id="current-color-scheme">.ColorScheme-Text{color:#232629;}</style></defs>
 <g class="ColorScheme-Text" fill="currentColor">
  <path d="M8.2 2c-.7.8-.7 1.7 0 2.5.7.8.7 1.7 0 2.5" fill="none" stroke="currentColor" stroke-width="1.2" stroke-linecap="round"/>
  <path d="M11.5 2c-.7.8-.7 1.7 0 2.5.7.8.7 1.7 0 2.5" fill="none" stroke="currentColor" stroke-width="1.2" stroke-linecap="round"/>
  <path d="M3 8.5h10v3.2A4.6 4.6 0 0 1 8.4 16.3H7.6A4.6 4.6 0 0 1 3 11.7z"/>
  <path d="M13 9.2h2a2.5 2.5 0 0 1 0 5h-1.5a6 6 0 0 0 .8-1.6h.7a.9.9 0 0 0 0-1.8h-2z"/>
  <rect x="2" y="17.8" width="12" height="1.7" rx=".85"/>
 </g>
</svg>
