<?xml version="1.0" encoding="UTF-8"?>
<svg xmlns="http://www.w3.org/2000/svg" width="24" height="24" viewBox="0 0 24 24">
  <g fill="#232629" stroke="none">
    <!-- steam -->
    <path d="M9 2.2c-.7.9-.7 1.8 0 2.7.7.9.7 1.8 0 2.7" fill="none" stroke="#232629" stroke-width="1.3" stroke-linecap="round"/>
    <path d="M12.6 2.2c-.7.9-.7 1.8 0 2.7.7.9.7 1.8 0 2.7" fill="none" stroke="#232629" stroke-width="1.3" stroke-linecap="round"/>
    <!-- cup body -->
    <path d="M3.5 9h11v3.5a5 5 0 0 1-5 5h-1a5 5 0 0 1-5-5z"/>
    <!-- handle -->
    <path d="M14.5 9.8h2.2a2.7 2.7 0 0 1 0 5.4h-1.6a6.3 6.3 0 0 0 .9-1.7h.7a1 1 0 0 0 0-2h-2.2z"/>
    <!-- saucer -->
    <rect x="2.5" y="19.4" width="13" height="1.8" rx=".9"/>
  </g>
</svg>
